HIERARCHY
ROOT Hips
{
  OFFSET -1024.88 92.1664 384.082
  CHANNELS 6 Xposition Yposition Zposition Zrotation Xrotation Yrotation
  JOINT RightUpLeg
  {
    OFFSET -8.9458 -8.66707 0.101652
    CHANNELS 3 Zrotation Xrotation Yrotation
    JOINT RightLeg
    {
      OFFSET 0 -44.4227 1.3727
      CHANNELS 3 Zrotation Xrotation Yrotation
      JOINT RightFoot
      {
        OFFSET 0.253549 -42.0924 -1.46059
        CHANNELS 3 Zrotation Xrotation Yrotation
        JOINT RightToes
        {
          OFFSET 0.04 -4.41509 8.4991
          CHANNELS 3 Zrotation Xrotation Yrotation
          End Site
          {
            OFFSET -0.08 -0.137448 9.77979
          }
        }
      }
    }
  }
  JOINT Spine
  {
    OFFSET 0 11.8905 0
    CHANNELS 3 Zrotation Xrotation Yrotation
    JOINT Spine1
    {
      OFFSET 0 25.6574 0.127663
      CHANNELS 3 Zrotation Xrotation Yrotation
      JOINT HEad
      {
        OFFSET 0 8.73416 0.011341
        CHANNELS 3 Zrotation Xrotation Yrotation
        End Site
        {
          OFFSET -0.29 12.7742 2.51395
        }
      }
      JOINT LeftShoulder1
      {
        OFFSET 8.99 -0.362252 -0.22
        CHANNELS 3 Zrotation Xrotation Yrotation
        JOINT LeftArm
        {
          OFFSET 10.2827 -0.00338 0.322123
          CHANNELS 3 Zrotation Xrotation Yrotation
          JOINT LeftForeArm
          {
            OFFSET 32.7669 0.099144 -1.42434
            CHANNELS 3 Zrotation Xrotation Yrotation
            JOINT LeftHand
            {
              OFFSET 27.5643 0.085362 1.02216
              CHANNELS 3 Zrotation Xrotation Yrotation
              End Site
              {
                OFFSET 16.7443 -0.6 1.50291
              }
            }
          }
        }
      }
      JOINT RightShoulder
      {
        OFFSET -8.99 -0.362252 -0.22
        CHANNELS 3 Zrotation Xrotation Yrotation
        JOINT RightArm
        {
          OFFSET -10.2827 -0.00338 0.322123
          CHANNELS 3 Zrotation Xrotation Yrotation
          JOINT RightForeArm
          {
            OFFSET -32.8971 0.099144 -1.42434
            CHANNELS 3 Zrotation Xrotation Yrotation
            JOINT RightHand
            {
              OFFSET -27.4921 0.085362 1.02216
              CHANNELS 3 Zrotation Xrotation Yrotation
              End Site
              {
                OFFSET -16.6312 -0.6 1.50291
              }
            }
          }
        }
      }
    }
  }
  JOINT LeftUpLeg
  {
    OFFSET 8.9458 -8.66707 0.101652
    CHANNELS 3 Zrotation Xrotation Yrotation
    JOINT LeftLeg
    {
      OFFSET 0 -44.4227 1.3727
      CHANNELS 3 Zrotation Xrotation Yrotation
      JOINT LeftFoot
      {
        OFFSET -0.253549 -42.0924 -1.46059
        CHANNELS 3 Zrotation Xrotation Yrotation
        JOINT LeftToes
        {
          OFFSET -0.04 -4.41509 8.4991
          CHANNELS 3 Zrotation Xrotation Yrotation
          End Site
          {
            OFFSET 0.08 -0.047448 9.77979
          }
        }
      }
    }
  }
}
MOTION
Frames:	17
Frame Time:	0.0166667
-1011.6 91.7487 346.559 -9.00816 -20.3271 6.57542 1.73466 -8.92398 -5.09854 -5.2933 34.781 8.33046 14.4671 -2.60103 0.272347 0.0462048 0.000533403 0.662642 23.9013 21.5159 -5.45687 -0.0271508 -0.0175889 -0.00777171 18.2017 39.092 30.4916 3.97569e-016 7.95139e-016 -0 -131.01 -49.2968 -125.585 -66.5675 52.2299 -54.9758 3.22744 14.5073 -1.74966 20.2526 2.27932 8.00104 91.3117 -34.4915 81.377 44.8936 53.1343 61.7846 -6.67565 30.1908 -20.7402 10.83 -37.8455 14.0801 9.55784 54.4208 -4.79779 13.9515 -0.0131264 0.621511 -1.18447e-009 1.5602e-007 -4.87131e-009 
-1010.61 92.4016 344.035 -7.24076 -16.9925 2.62686 -0.791242 -10.8558 -0.933781 -5.704 30.7789 8.34768 33.1203 -2.03757 1.06269 0.0462048 0.000533403 0.662642 20.4617 21.9958 -3.73283 -0.0127646 0.0384531 -0.0974145 14.7912 36.626 34.7639 -7.95139e-016 0 -0 -134.293 -50.2619 -129.833 -66.8516 52.4615 -54.9158 1.77071 13.8467 -1.65214 20.3932 3.66148 -0.645768 89.9269 -23.9966 82.3445 43.3945 53.0615 62.2296 -8.64915 22.1078 -6.50273 13.7407 -39.3183 17.3199 13.93 60.2876 -11.445 1.75907 -0.826566 -0.551936 -1.18446e-009 1.5602e-007 -4.87132e-009 
-1009.47 93.6105 341.344 -5.15975 -12.9513 -2.38705 -0.477761 -15.9324 2.80728 -6.92999 31.1099 8.49132 12.5763 -4.19224 1.01723 0.0462048 0.000533403 0.662642 16.0938 21.6621 -1.94199 -0.00502442 0.0349727 -0.0940652 10.5736 32.8103 40.2108 1.46604e-015 0 1.98785e-016 -138.744 -51.8735 -135.836 -67.1184 52.633 -54.7943 3.97949 15.7046 -1.29672 19.6833 3.83561 3.4497 89.1553 -24.6364 82.0844 42.6878 52.9764 62.4849 -7.86992 25.3966 -11.602 16.4491 -39.2471 20.8239 14.3368 60.6712 -15.2461 -10.0121 0.00131047 -0.844115 -1.18446e-009 1.5602e-007 -4.87131e-009 
-1008.4 94.3353 338.752 -3.29118 -9.72237 -6.90948 -1.89404 -19.6708 4.69815 -7.39321 28.2557 9.05336 17.7825 -4.53274 0.912142 0.0462048 0.000533403 0.662642 12.2079 20.7346 -0.885156 -0.00132812 -0.013582 0.0150246 7.16745 28.0024 44.6898 -2.98177e-015 -4.77083e-015 7.95139e-016 -143.145 -53.7297 -141.935 -67.8325 52.5831 -54.7133 3.30879 15.5167 -1.13349 19.2772 4.44423 6.79608 88.5364 -24.9084 81.9627 42.5616 52.9936 62.9147 -8.0548 20.9809 -4.18774 17.836 -38.3076 22.0285 11.6382 58.0739 -16.2028 -21.5636 0.352013 -0.808796 -1.18446e-009 1.5602e-007 -4.87131e-009 
-1007.33 94.938 336.296 -1.70287 -7.15854 -11.0266 -2.53538 -23.2814 4.95791 -7.24696 27.2117 6.77169 11.6382 -5.97305 0.796339 0.0462048 0.000533403 0.662642 9.04658 19.6307 -0.137182 0.00165944 -0.0103724 0.0181617 4.34917 22.0441 48.1457 -7.95139e-016 -1.59028e-015 1.59028e-015 -147.402 -55.1011 -147.661 -68.4058 52.5011 -54.6244 4.79328 16.6436 -0.756452 18.8301 5.09699 9.44361 88.0742 -24.9643 81.9791 42.7355 53.0422 63.3122 -7.78088 23.4049 -7.5082 17.8184 -36.3505 21.1744 8.27453 52.2792 -15.7919 -33.2562 0.810481 -0.730803 -1.18446e-009 1.5602e-007 -4.87131e-009 
-1006.31 95.5259 333.947 -0.375947 -5.11737 -14.7691 -4.20869 -25.84 3.42218 -5.88164 25.1308 2.9162 13.1755 -5.66557 0.802767 0.0462048 0.000533403 0.662642 6.45631 18.4434 0.417044 0.00306241 -0.00688168 0.0186537 2.02988 15.2633 50.5532 -1.98785e-015 1.59028e-015 -1.59028e-015 -147.715 -53.4027 -147.814 -66.2504 54.643 -53.9928 4.36199 16.5763 -0.437582 18.5032 5.80193 11.5692 86.326 -28.1619 82.8648 46.9829 51.8754 62.8766 -7.56377 20.8851 -3.39128 16.422 -34.8663 18.8225 4.62457 46.475 -14.3838 -32.1111 1.31396 -0.413793 -1.18446e-009 1.5602e-007 -4.87131e-009 
-1005.31 96.0296 331.758 0.697882 -3.51238 -18.1322 -5.64237 -27.9313 0.462684 -4.21482 24.3083 -1.33813 8.3161 -6.08039 0.522347 0.0462048 0.000533403 0.662642 4.34855 17.2693 0.811031 0.00418056 -0.00414223 0.0182165 0.613468 9.15068 52.3606 1.19271e-015 -1.59028e-015 -3.18055e-015 -149.104 -52.7546 -149.434 -65.378 55.5877 -53.6154 5.13545 17.1205 0.00385364 18.1251 6.49013 13.162 85.3877 -29.5939 83.4623 49.1893 51.4998 62.6922 -7.82907 22.3822 -5.19718 14.7173 -32.9358 15.3992 3.40461 40.2779 -13.316 -31.8903 1.08792 -0.434856 -1.18446e-009 1.5602e-007 -4.87131e-009 
-1004.36 96.423 329.729 1.53269 -2.27812 -21.0918 -7.20605 -29.229 -2.64088 -2.89816 23.413 -2.50583 9.92853 -5.07425 0.663454 0.0462048 0.000533403 0.662642 2.64807 16.1774 1.05042 0.00503598 -0.00260309 0.0170974 -0.219253 3.74877 53.7607 2.38542e-015 0 3.18055e-015 -150.895 -52.6537 -151.451 -65.3304 55.9572 -53.238 4.69584 16.933 0.366972 17.7225 7.14395 14.2273 85.0029 -29.9399 83.9625 50.2607 51.5138 62.6708 -7.83311 20.727 -2.68366 13.0187 -30.7393 11.325 3.3347 34.523 -10.9535 -31.6926 0.741258 -0.564553 -1.18447e-009 1.5602e-007 -4.87131e-009 
-1003.57 96.9494 327.841 2.1551 -1.36241 -23.5677 -8.39432 -29.7186 -5.70579 -1.53721 22.9158 -2.73565 11.3237 -3.92027 0.624268 0.0462048 0.000533403 0.662642 1.29445 15.2173 1.08593 0.00565025 -0.00129467 0.0155438 -0.696969 -0.935543 54.8461 -0 -1.59028e-015 -0 -152.715 -52.8181 -153.237 -65.8046 56.1017 -52.7676 5.07264 17.0457 0.80587 17.3947 7.79477 14.9281 84.9357 -29.785 84.415 50.7 51.6532 62.7029 -8.30382 21.3796 -3.58892 10.5865 -28.6898 6.877 4.07951 33.7288 -5.9408 -16.3065 -0.564533 -0.33697 -1.18447e-009 1.5602e-007 -4.87132e-009 
-1002.81 96.9997 326.2 2.58559 -0.714236 -25.4829 -9.59353 -31.3713 -8.84197 -0.570792 25.4364 -1.53767 12.9421 -3.67884 0.71311 0.0462048 0.000533403 0.662642 0.249665 14.4087 0.882863 0.00604522 -0.000201414 0.013803 -0.993462 -4.89372 55.6407 -7.95139e-016 1.59028e-015 -0 -152.382 -52.0033 -149.221 -68.0701 55.4167 -50.3265 3.16402 21.5063 0.803801 17.2142 8.48472 15.3988 85.0244 -29.536 84.7769 50.8342 51.85 62.8123 -8.30827 20.1247 -2.00538 9.98199 -25.458 2.99184 3.67965 33.3344 1.03086 -23.7335 -0.266831 -0.914902 -1.18447e-009 1.5602e-007 -4.87132e-009 
-1002.22 97.2034 324.54 2.84216 -0.296156 -26.801 -10.5066 -32.7612 -11.9112 -0.225877 27.5903 0.759601 14.6502 -2.79271 0.687592 0.0462048 0.000533403 0.662642 -0.538866 13.7806 0.426246 0.00624271 0.000692199 0.0121225 -1.22641 -8.14937 56.1617 7.95139e-016 1.59028e-015 3.18055e-015 -152.853 -51.9016 -147.155 -69.7379 55.0111 -48.9633 9.68007 6.3165 3.07076 17.1663 9.19462 15.7148 85.2284 -29.3638 85.0015 50.8326 52.0714 62.9445 -8.58177 20.2509 -2.39399 7.77857 -22.7769 0.152555 2.83881 33.5549 7.33349 -2.86974 -1.90546 0.152871 -1.18447e-009 1.5602e-007 -4.87131e-009 
-1001.71 97.1197 322.965 2.93722 -0.0831167 -27.597 -11.5163 -34.788 -14.9688 -0.661773 31.1139 3.94637 16.7062 -2.22312 0.71187 0.0462048 0.000533403 0.662642 -1.1326 13.3418 -0.198961 0.00626453 0.00140171 0.0107495 -2.42154 -9.62425 56.2509 1.59028e-015 6.36111e-015 -0 -153.59 -52.3649 -145.906 -71.0302 54.9178 -48.2103 2.62228 22.9118 1.70771 17.221 9.90124 15.916 85.5189 -29.3308 85.0475 50.8046 52.3471 63.116 -8.42559 19.3586 -1.27635 8.09824 -19.5385 -1.10947 1.94928 32.0495 11.4536 -9.31407 -1.72384 -0.534368 -1.18446e-009 1.5602e-007 -4.87131e-009 
-1001.32 96.9156 321.433 2.89581 -0.0604168 -27.9647 -12.7313 -36.6504 -16.9046 -0.948105 34.798 6.35875 19.1452 -1.62693 0.725389 0.0462048 0.000533403 0.662642 -1.59246 13.082 -0.904497 0.00613251 0.00194266 0.00953488 -4.4026 -9.36289 56.1039 0 0 -3.18055e-015 -154.368 -53.3228 -145.016 -71.9317 54.8969 -47.9692 7.15365 13.6422 2.89516 17.3247 10.5722 16.0074 85.8908 -29.4086 84.918 50.7947 52.6652 63.2888 -8.41363 19.3303 -1.33505 8.00606 -17.0156 -1.29393 1.54126 30.512 13.4509 -6.56888 -2.41719 -0.369416 -1.18446e-009 1.5602e-007 -4.87131e-009 
-1001.01 96.5634 319.955 2.75117 -0.210197 -27.9966 -13.9511 -38.1402 -17.6518 -0.987579 38.3997 7.71435 21.9523 -1.09047 0.733643 0.0462048 0.000533403 0.662642 -1.96363 12.978 -1.62077 0.00586847 0.00233058 0.00832099 -6.94745 -7.46838 55.9972 1.59028e-015 0 -0 -155.049 -54.7201 -144.147 -72.6623 55.1113 -47.9952 2.60805 22.6339 2.37937 17.4278 11.1803 15.9637 86.3371 -29.517 84.6519 50.8434 53.0145 63.4582 -8.13668 18.7784 -0.481925 8.44695 -15.1138 -0.425981 1.46323 29.2212 13.523 -7.98754 -2.95506 -0.46996 -1.18446e-009 1.5602e-007 -4.87131e-009 
-1000.78 96.1087 318.511 2.53905 -0.505197 -27.7744 -14.9649 -39.0417 -17.1789 -0.617096 41.511 7.79947 25.1231 -0.606439 0.727186 0.0462048 0.000533403 0.662642 -2.26174 12.9982 -2.30184 0.00549424 0.002581 0.00710061 -9.7996 -4.10055 56.2526 -1.59028e-015 1.59028e-015 3.18055e-015 -153.945 -59.6449 -139.232 -68.7332 56.7202 -55.124 5.71217 17.4091 2.99225 17.5145 11.7163 15.7835 86.8126 -29.6044 84.2845 50.9542 53.3779 63.6163 -7.97908 18.7583 -0.339129 8.9194 -14.0307 1.3992 1.68705 28.5396 12.0018 -7.10191 -3.53999 -0.44138 -1.18447e-009 1.5602e-007 -4.87132e-009 
-1000.55 95.8257 317.07 2.29421 -0.873967 -27.43 -14.4743 -39.9778 -15.3855 -1.96375 48.6268 8.60904 8.89471 -0.683859 -0.716576 0.0462048 0.000533403 0.662642 -2.50845 13.0927 -2.85457 0.00503166 0.00270948 0.00587989 -12.3469 -0.928474 56.5606 -1.76556e-031 -1.59028e-015 -6.36111e-015 -152.443 -63.4066 -135.443 -66.1146 57.2488 -59.7612 2.54321 22.3647 2.55419 17.5177 12.1401 15.4876 87.3621 -29.6107 83.8975 51.1544 53.7197 63.746 -7.68649 18.4636 0.346654 9.60063 -13.6524 4.08469 2.15766 27.6389 9.31296 -6.08911 -3.70775 -0.37656 -1.18447e-009 1.5602e-007 -4.87131e-009 
-1000.47 95.3485 315.625 2.04498 -1.2528 -27.0722 -15.1472 -38.9043 -13.2837 -5.12547 56.2361 9.97302 8.86624 0.241389 -0.0351572 0.0462048 0.000533403 0.662642 -2.71967 13.2292 -3.20711 0.00450255 0.00273154 0.00466502 -14.5778 2.01121 56.9019 -7.95139e-016 1.59028e-015 -0 -150.94 -66.4041 -132.609 -64.6032 57.2194 -62.5638 4.62859 19.6116 2.74003 17.4634 12.4399 15.1239 87.9498 -29.5288 83.5345 51.4375 54.0345 63.842 -7.48553 18.4786 0.583504 10.4005 -14.1849 6.57534 2.66614 28.1267 6.60377 -5.36268 -4.51275 -0.341542 -1.18447e-009 1.5602e-007 -4.87131e-009 
